<svg xmlns="http://www.w3.org/2000/svg" xmlns:xlink="http://www.w3.org/1999/xlink" version="1.1" width="940" height="788" viewBox="0 0 940 788" xml:space="preserve">
<desc>Created with Fabric.js 3.5.0</desc>
<defs>
</defs>
<rect x="0" y="0" width="100%" height="100%" fill="rgba(255,255,255,0)"/>
<g transform="matrix(0.0589 0 0 -0.0501 463.5087 394.2391)" id="979954">
<path style="stroke: none; stroke-width: 1; stroke-dasharray: none; stroke-linecap: butt; stroke-dashoffset: 0; stroke-linejoin: miter; stroke-miterlimit: 4; is-custom-font: none; font-file-url: none; fill: rgb(0,0,0); fill-rule: nonzero; opacity: 1;" vector-effect="non-scaling-stroke" transform=" translate(-9599.9431, -9599.0645)" d="M 9135 17449 c -1757 -108 -3382 -775 -4720 -1938 c -157 -137 -593 -573 -729 -730 c -905 -1043 -1501 -2237 -1781 -3565 c -201 -955 -220 -1984 -54 -2946 c 248 -1439 864 -2732 1835 -3851 c 136 -157 572 -593 729 -730 c 1462 -1271 3266 -1949 5185 -1949 c 1919 0 3723 678 5185 1949 c 157 137 593 573 729 730 c 1171 1350 1829 2962 1936 4741 c 21 348 11 832 -25 1205 c -138 1419 -661 2777 -1514 3925 c -88 119 -280 357 -397 491 c -136 157 -572 593 -729 730 c -1346 1170 -2967 1832 -4742 1939 c -196 11 -713 11 -908 -1 z m 3545 -3379 l 0 -960 l 960 0 l 960 0 l 0 -965 l 0 -965 l -960 0 l -960 0 l 0 -960 l 0 -960 l -962 2 l -963 3 l -3 958 l -2 957 l -954 0 c -867 0 -954 1 -960 16 c -8 20 -7 1849 1 1887 l 5 27 l 954 0 l 954 0 l 0 953 c 0 525 3 957 7 960 c 3 4 438 7 965 7 l 958 0 l 0 -960 z m 3553 -4384 c 168 -32 301 -123 331 -227 c 21 -69 20 -120 -3 -211 c -44 -169 -165 -364 -415 -663 c -196 -234 -326 -351 -701 -630 c -225 -167 -491 -372 -670 -515 c -271 -218 -964 -742 -1120 -847 c -75 -51 -161 -94 -395 -198 c -102 -46 -394 -178 -650 -295 c -256 -117 -508 -232 -560 -255 c -52 -23 -237 -106 -410 -185 c -173 -78 -462 -207 -643 -286 c -219 -96 -367 -168 -450 -217 c -131 -80 -237 -135 -319 -168 c -181 -71 -414 -96 -613 -64 c -200 31 -542 140 -798 254 c -75 33 -222 94 -325 135 c -565 225 -788 287 -1547 435 c -498 97 -837 137 -1225 147 c -205 6 -244 4 -440 -21 c -361 -45 -504 -79 -761 -180 c -259 -103 -557 -256 -684 -350 c -56 -42 -92 -62 -99 -53 c -4 4 -587 3068 -589 3095 c -2 21 -1 21 273 26 c 471 8 821 63 1168 182 c 167 57 303 116 602 263 c 440 215 657 285 1060 339 c 194 26 698 26 890 0 c 249 -34 432 -77 642 -153 c 207 -74 370 -158 561 -287 c 496 -336 525 -354 687 -420 c 346 -141 675 -184 1155 -152 c 502 34 899 2 1322 -105 c 270 -69 568 -193 748 -312 c 152 -100 315 -279 387 -423 c 33 -67 39 -94 39 -185 c 0 -103 -36 -212 -101 -312 c -81 -123 -170 -189 -348 -257 c -323 -123 -658 -131 -1387 -31 c -82 12 -325 48 -540 80 c -523 80 -706 104 -1093 145 c -684 72 -992 90 -1392 82 c -450 -9 -677 -42 -831 -119 c -92 -46 -111 -70 -80 -101 l 20 -21 l 123 42 c 234 78 410 102 757 102 c 718 -1 1403 -69 2831 -280 c 591 -88 721 -101 955 -102 c 457 0 779 104 995 321 c 166 168 232 370 185 570 c -22 91 -86 207 -160 289 c -85 95 -93 110 -63 121 c 208 80 646 270 864 376 c 415 201 623 339 910 606 c 103 97 140 124 449 329 c 99 66 261 177 360 246 c 396 277 661 408 900 444 c 79 12 118 11 198 -4 z m -2513 -1331 c 0 -9 -193 -117 -356 -198 c -93 -47 -266 -128 -384 -180 c -118 -52 -255 -114 -305 -137 c -106 -49 -181 -70 -249 -70 c -43 0 -59 6 -120 49 c -39 27 -116 73 -171 102 l -100 54 l 90 13 c 385 55 710 115 958 178 c 169 42 434 122 542 163 c 83 31 95 34 95 26 z" stroke-linecap="round"/>
</g>
</svg>